# xmcd CD database file
#
# Track frame offsets:
#	150
#	17610
#	30246
#	48253
#	66448
#	82689
#	95266
#	113625
#	128142
#	142067
#	161108
#	176081
#	186826
#	207734
#	224330
#	243472
#
# Disc length: 3473 seconds
#
# Revision: 4
# Processed by: cddbd v1.5.2PL0 Copyright (c) Steve Scherf et al.
# Submitted via: CDex 1.50beta9
#
DISCID=df0d8f10
DTITLE=Brunno e Matheus - Anjo
DYEAR=2009
DGENRE=Country
TTITLE0=Anjo
TTITLE1=Caipirinha
TTITLE2=Um Dia Voce Vai Querer Voltar
TTITLE3=Vida de Caminhoneiro
TTITLE4=Eu Vou Virar o Jogo
TTITLE5=Onde Tem Fumaça, Tem Fogo
TTITLE6=Poeta do Amor
TTITLE7=Pedaço de Terra
TTITLE8=Vamos Beber "Chega de Sofrer"
TTITLE9=Apaixonado
TTITLE10=Briga de Casal
TTITLE11=Vamos Matar Aula "Vamos Pro Buteco"
TTITLE12=Foi Mal
TTITLE13=Esperança Morta
TTITLE14=Quando a Viola Chora
TTITLE15=O que Vale é a Emoção
EXTD=YEAR: 2009
EXTT0=
EXTT1=
EXTT2=
EXTT3=
EXTT4=
EXTT5=
EXTT6=
EXTT7=
EXTT8=
EXTT9=
EXTT10=
EXTT11=
EXTT12=
EXTT13=
EXTT14=
EXTT15=
PLAYORDER=
